<svg xmlns:x="http://ns.adobe.com/Extensibility/1.0/" xmlns:i="http://ns.adobe.com/AdobeIllustrator/10.0/" xmlns:graph="http://ns.adobe.com/Graphs/1.0/" xmlns="http://www.w3.org/2000/svg" xmlns:xlink="http://www.w3.org/1999/xlink" xmlns:a="http://ns.adobe.com/AdobeSVGViewerExtensions/3.0/" version="1.1" id="Layer_1" x="0px" y="0px" width="100%" height="100%" viewBox="0 0 437.596 159.039" enable-background="new 0 0 437.596 159.039" xml:space="preserve">
<g>
	<polygon fill="#1972f5" points="69.352,134.544 0,65.191 65.19,0 76.455,11.266 21.059,65.191 69.352,113.485 123.279,58.088    134.543,69.353  "/>
	
		<rect x="59.895" y="81.814" transform="matrix(0.7071 -0.7071 0.7071 0.7071 -44.102 75.4736)" fill="#2d2d2d" width="18.317" height="18.317"/>
	<polygon fill="#98C2E8" points="69.352,152.974 0,83.622 0,89.686 69.352,159.039 134.552,93.84 134.552,87.775  "/>
	<polygon fill="#4DA0D8" points="69.352,139.117 0,69.765 0,79.51 69.352,148.863 134.552,83.663 134.552,73.917  "/>
	<polygon fill="#1972f5" points="243.239,83.921 260.229,41.447 276.359,41.447 249.539,108.164 236.94,108.164 210.119,41.447    226.251,41.447  "/>
	<polygon fill="#1972f5" points="311.615,83.921 328.604,41.447 344.734,41.447 317.914,108.164 305.315,108.164 278.495,41.447    294.626,41.447  "/>
	<rect x="354.027" y="56.814" fill="#1972f5" width="14.317" height="51.35"/>
	
		<rect x="353.648" y="34.488" transform="matrix(0.7071 -0.7071 0.7071 0.7071 76.0725 267.7061)" fill="#2d2d2d" width="15.076" height="15.075"/>
	<polygon fill="#1972f5" points="381.76,108.164 381.76,97.951 416.694,54.332 382.905,54.332 382.905,41.447 437.023,41.447    437.023,51.755 402.186,95.184 437.596,95.184 437.596,108.164  "/>
	<path fill="#1972f5" d="M215.786,79.055c-2.37,6.749-6.881,11.362-13.544,13.826c-4.971,1.839-9.846,1.659-14.628-0.542   c-4.782-2.198-8.238-6.184-10.372-11.951c-2.133-5.769-1.98-11.036,0.458-15.806s6.261-8.118,11.468-10.044   c5.758-2.13,11.471-1.815,17.137,0.932l-6.47-16.094c-5.329-0.563-10.722,0.15-16.178,2.17c-9.112,3.37-15.679,9.297-19.704,17.779   c-4.025,8.484-4.336,17.326-0.934,26.524c3.404,9.2,9.312,15.673,17.727,19.421c8.413,3.748,17.398,3.855,26.953,0.321   c5.876-2.174,10.719-5.677,14.535-10.498L215.786,79.055z"/>
</g>
</svg>